
<svg width="16px" height="16px" viewBox="0 0 16 16" version="1.1" xmlns="http://www.w3.org/2000/svg" xmlns:xlink="http://www.w3.org/1999/xlink">
    <g id="Portfolio-Website" stroke="none" stroke-width="1" fill="none" fill-rule="evenodd">
        <g id="Desktop" transform="translate(-841.000000, -442.000000)" fill="#007FFF" fill-rule="nonzero">
            <g id="Socials" transform="translate(743.000000, 442.000000)">
                <path d="M106.939488,0.00087345679 C107.743617,0.00271604938 108.176136,0.00775308642 108.54721,0.0185679012 L108.729062,0.02446875 C108.908667,0.030875 109.085833,0.0388333333 109.299333,0.0486666667 C112.207333,0.182 113.821333,1.79933333 113.952,4.702 C113.984222,5.41311111 113.996074,5.72051852 113.99913,7.06056481 L113.99995,7.73813643 L113.99995,7.73813643 L114,8 C114,8.09052778 113.999984,8.17775694 113.99995,8.26186695 L113.999127,8.93948457 C113.99713,9.81061497 113.991385,10.2455858 113.978607,10.6386409 L113.972197,10.8185102 C113.96642,10.9683137 113.959528,11.1208889 113.951333,11.2986667 C113.82,14.2066667 112.201333,15.8186667 109.298667,15.952 C109.120889,15.9600556 108.968314,15.966838 108.81851,15.9725281 L108.638641,15.9788435 C108.245586,15.991441 107.810615,15.9971435 106.939485,15.9991296 L106.261867,15.9999499 L106.261867,15.9999499 L106,16 C105.909472,16 105.822244,15.9999838 105.738136,15.9999499 L105.060562,15.9991296 C104.189522,15.9971435 103.754739,15.991441 103.361652,15.9788435 L103.181751,15.9725281 C103.031906,15.966838 102.87925,15.9600556 102.701333,15.952 C99.7933333,15.8186667 98.1813333,14.204 98.048,11.2986667 C98.0399444,11.1208889 98.033162,10.9683137 98.0274719,10.8185102 L98.0211565,10.6386409 C98.008559,10.2455858 98.0028565,9.81061497 98.0008704,8.93948457 L98.0008735,7.06056173 C98.0028696,6.1895216 98.0086148,5.75473881 98.0213935,5.36165181 L98.0278027,5.18175096 C98.0335799,5.03190625 98.0404722,4.87925 98.0486667,4.70133333 C98.182,1.79333333 99.7966667,0.181333333 102.702,0.048 C103.413111,0.0157777778 103.720519,0.00392592593 105.060565,0.00087037037 Z M106,3.892 C103.731333,3.892 101.892,5.73133333 101.892,8 C101.892,10.2686667 103.731333,12.1086667 106,12.1086667 C108.268667,12.1086667 110.108,10.2693333 110.108,8 C110.108,5.73133333 108.268667,3.892 106,3.892 Z M106,10.6666667 C104.527333,10.6666667 103.333333,9.47333333 103.333333,8 C103.333333,6.52733333 104.527333,5.33333333 106,5.33333333 C107.472667,5.33333333 108.666667,6.52733333 108.666667,8 C108.666667,9.47333333 107.472667,10.6666667 106,10.6666667 Z M110.270667,2.77 C109.74,2.77 109.31,3.2 109.31,3.73 C109.31,4.26 109.74,4.69 110.270667,4.69 C110.800667,4.69 111.23,4.26 111.23,3.73 C111.23,3.2 110.800667,2.77 110.270667,2.77 Z" id="instagram"></path>
            </g>
        </g>
    </g>
</svg>