
<svg width="20px" height="11px" viewBox="0 0 20 11" version="1.1" xmlns="http://www.w3.org/2000/svg" xmlns:xlink="http://www.w3.org/1999/xlink">
    <g id="Portfolio-Website" stroke="none" stroke-width="1" fill="none" fill-rule="evenodd">
        <g id="Mobile" transform="translate(-30.000000, -81.000000)" fill="#007FFF" fill-rule="nonzero">
            <g id="Navigation-2" transform="translate(30.000000, 81.000000)">
                <path d="M18.5,8 C19.3284271,8 20,8.67157288 20,9.5 C20,10.3284271 19.3284271,11 18.5,11 L1.5,11 C0.671572875,11 1.01453063e-16,10.3284271 0,9.5 C-1.01453063e-16,8.67157288 0.671572875,8 1.5,8 L18.5,8 Z M18.5,0 C19.3284271,-1.52179594e-16 20,0.671572875 20,1.5 C20,2.32842712 19.3284271,3 18.5,3 L1.5,3 C0.671572875,3 1.01453063e-16,2.32842712 0,1.5 C-1.01453063e-16,0.671572875 0.671572875,1.52179594e-16 1.5,0 L18.5,0 Z" id="Navigation"></path>
            </g>
        </g>
    </g>
</svg>